<?xml version="1.0" encoding="UTF-8" standalone="no"?>
<svg
   xmlns:dc="http://purl.org/dc/elements/1.1/"
   xmlns:cc="http://creativecommons.org/ns#"
   xmlns:rdf="http://www.w3.org/1999/02/22-rdf-syntax-ns#"
   xmlns:svg="http://www.w3.org/2000/svg"
   xmlns="http://www.w3.org/2000/svg"
   id="svg105"
   version="1.1"
   viewBox="0 0 43.9940905122495 50.8"
   height="50.8mm"
   width="43.9940905122495mm"
   preserveAspectRatio="xMidYMid">
  <metadata
     id="metadata109">
    <rdf:RDF>
      <cc:Work
         rdf:about="">
        <dc:format>image/svg+xml</dc:format>
        <dc:type
           rdf:resource="http://purl.org/dc/dcmitype/StillImage" />
      </cc:Work>
    </rdf:RDF>
  </metadata>
  <rect
     fill="none"
     height="100%"
     width="100%"
     id="canvas" />
  <path
     d="M 43.9940905122495,12.7 L 43.9940905122495,38.1 L 21.9970452561247,50.8 L -3.5527136788005e-15,38.1 L 0,12.7 L 21.9970452561247,0 Z"
     style="stroke: none; fill:#f9ecc6; stroke-width:0;"
     id="path-76" />
  <rect
     transform="rotate(-120, 2.69445723868114, 14.2556456120725)"
     style="fill:#888888;stroke:#f9ecc6;fill-opacity:1;stroke-opacity:1;stroke-width:0.297182783678067"
     y="14.2556456120725"
     x="2.69445723868114"
     height="2.47652319731722"
     width="2.47652319731722"
     id="rect-1" />
  <rect
     transform="rotate(-120, 4.83918924061932, 13.0173840134139)"
     style="fill:#888888;stroke:#f9ecc6;fill-opacity:1;stroke-opacity:1;stroke-width:0.297182783678067"
     y="13.0173840134139"
     x="4.83918924061932"
     height="2.47652319731722"
     width="2.47652319731722"
     id="rect-2" />
  <rect
     transform="rotate(-120, 6.98392124255749, 11.7791224147553)"
     style="fill:#888888;stroke:#f9ecc6;fill-opacity:1;stroke-opacity:1;stroke-width:0.297182783678067"
     y="11.7791224147553"
     x="6.98392124255749"
     height="2.47652319731722"
     width="2.47652319731722"
     id="rect-3" />
  <rect
     transform="rotate(-120, 9.12865324449567, 10.5408608160967)"
     style="fill:#66AA66;stroke:#f9ecc6;fill-opacity:1;stroke-opacity:1;stroke-width:0.297182783678067"
     y="10.5408608160967"
     x="9.12865324449567"
     height="2.47652319731722"
     width="2.47652319731722"
     id="rect-4" />
  <rect
     transform="rotate(-120, 11.2733852464339, 9.30259921743804)"
     style="fill:#888888;stroke:#f9ecc6;fill-opacity:1;stroke-opacity:1;stroke-width:0.297182783678067"
     y="9.30259921743804"
     x="11.2733852464339"
     height="2.47652319731722"
     width="2.47652319731722"
     id="rect-5" />
  <rect
     transform="rotate(-120, 13.418117248372, 8.06433761877943)"
     style="fill:#888888;stroke:#f9ecc6;fill-opacity:1;stroke-opacity:1;stroke-width:0.297182783678067"
     y="8.06433761877943"
     x="13.418117248372"
     height="2.47652319731722"
     width="2.47652319731722"
     id="rect-6" />
  <rect
     transform="rotate(-120, 15.5628492503102, 6.82607602012082)"
     style="fill:#888888;stroke:#f9ecc6;fill-opacity:1;stroke-opacity:1;stroke-width:0.297182783678067"
     y="6.82607602012082"
     x="15.5628492503102"
     height="2.47652319731722"
     width="2.47652319731722"
     id="rect-7" />
  <rect
     transform="rotate(-120, 17.7075812522484, 5.58781442146221)"
     style="fill:#6666AA;stroke:#f9ecc6;fill-opacity:1;stroke-opacity:1;stroke-width:0.297182783678067"
     y="5.58781442146221"
     x="17.7075812522484"
     height="2.47652319731722"
     width="2.47652319731722"
     id="rect-8" />
  <rect
     transform="rotate(-120, 19.8523132541866, 4.34955282280359)"
     style="fill:#888888;stroke:#f9ecc6;fill-opacity:1;stroke-opacity:1;stroke-width:0.297182783678067"
     y="4.34955282280359"
     x="19.8523132541866"
     height="2.47652319731722"
     width="2.47652319731722"
     id="rect-9" />
  <rect
     transform="rotate(-150, 24.1417772580629, 4.34955282280359)"
     style="fill:#888888;stroke:#f9ecc6;fill-opacity:1;stroke-opacity:1;stroke-width:0.297182783678067"
     y="4.34955282280359"
     x="24.1417772580629"
     height="2.47652319731722"
     width="2.47652319731722"
     id="rect-10" />
  <rect
     transform="rotate(-150, 26.2865092600011, 5.58781442146221)"
     style="fill:#888888;stroke:#f9ecc6;fill-opacity:1;stroke-opacity:1;stroke-width:0.297182783678067"
     y="5.58781442146221"
     x="26.2865092600011"
     height="2.47652319731722"
     width="2.47652319731722"
     id="rect-11" />
  <rect
     transform="rotate(-150, 28.4312412619393, 6.82607602012082)"
     style="fill:#888888;stroke:#f9ecc6;fill-opacity:1;stroke-opacity:1;stroke-width:0.297182783678067"
     y="6.82607602012082"
     x="28.4312412619393"
     height="2.47652319731722"
     width="2.47652319731722"
     id="rect-12" />
  <rect
     transform="rotate(-150, 30.5759732638774, 8.06433761877943)"
     style="fill:#888888;stroke:#f9ecc6;fill-opacity:1;stroke-opacity:1;stroke-width:0.297182783678067"
     y="8.06433761877943"
     x="30.5759732638774"
     height="2.47652319731722"
     width="2.47652319731722"
     id="rect-13" />
  <rect
     transform="rotate(-150, 32.7207052658156, 9.30259921743804)"
     style="fill:#888888;stroke:#f9ecc6;fill-opacity:1;stroke-opacity:1;stroke-width:0.297182783678067"
     y="9.30259921743804"
     x="32.7207052658156"
     height="2.47652319731722"
     width="2.47652319731722"
     id="rect-14" />
  <rect
     transform="rotate(-150, 34.8654372677538, 10.5408608160967)"
     style="fill:#888888;stroke:#f9ecc6;fill-opacity:1;stroke-opacity:1;stroke-width:0.297182783678067"
     y="10.5408608160967"
     x="34.8654372677538"
     height="2.47652319731722"
     width="2.47652319731722"
     id="rect-15" />
  <rect
     transform="rotate(-150, 37.010169269692, 11.7791224147553)"
     style="fill:#888888;stroke:#f9ecc6;fill-opacity:1;stroke-opacity:1;stroke-width:0.297182783678067"
     y="11.7791224147553"
     x="37.010169269692"
     height="2.47652319731722"
     width="2.47652319731722"
     id="rect-16" />
  <rect
     transform="rotate(-150, 39.1549012716302, 13.0173840134139)"
     style="fill:#6666AA;stroke:#f9ecc6;fill-opacity:1;stroke-opacity:1;stroke-width:0.297182783678067"
     y="13.0173840134139"
     x="39.1549012716302"
     height="2.47652319731722"
     width="2.47652319731722"
     id="rect-17" />
  <rect
     transform="rotate(-150, 41.2996332735683, 14.2556456120725)"
     style="fill:#888888;stroke:#f9ecc6;fill-opacity:1;stroke-opacity:1;stroke-width:0.297182783678067"
     y="14.2556456120725"
     x="41.2996332735683"
     height="2.47652319731722"
     width="2.47652319731722"
     id="rect-18" />
  <rect
     transform="rotate(0, 41.2996332735683, 14.2556456120725)"
     style="fill:#888888;stroke:#f9ecc6;fill-opacity:1;stroke-opacity:1;stroke-width:0.297182783678067"
     y="14.2556456120725"
     x="41.2996332735683"
     height="2.47652319731722"
     width="2.47652319731722"
     id="rect-19" />
  <rect
     transform="rotate(0, 41.2996332735683, 16.7321688093897)"
     style="fill:#888888;stroke:#f9ecc6;fill-opacity:1;stroke-opacity:1;stroke-width:0.297182783678067"
     y="16.7321688093897"
     x="41.2996332735683"
     height="2.47652319731722"
     width="2.47652319731722"
     id="rect-20" />
  <rect
     transform="rotate(0, 41.2996332735683, 19.2086920067069)"
     style="fill:#888888;stroke:#f9ecc6;fill-opacity:1;stroke-opacity:1;stroke-width:0.297182783678067"
     y="19.2086920067069"
     x="41.2996332735683"
     height="2.47652319731722"
     width="2.47652319731722"
     id="rect-21" />
  <rect
     transform="rotate(0, 41.2996332735683, 21.6852152040242)"
     style="fill:#888888;stroke:#f9ecc6;fill-opacity:1;stroke-opacity:1;stroke-width:0.297182783678067"
     y="21.6852152040242"
     x="41.2996332735683"
     height="2.47652319731722"
     width="2.47652319731722"
     id="rect-22" />
  <rect
     transform="rotate(0, 41.2996332735683, 24.1617384013414)"
     style="fill:#888888;stroke:#f9ecc6;fill-opacity:1;stroke-opacity:1;stroke-width:0.297182783678067"
     y="24.1617384013414"
     x="41.2996332735683"
     height="2.47652319731722"
     width="2.47652319731722"
     id="rect-23" />
  <rect
     transform="rotate(0, 41.2996332735683, 26.6382615986586)"
     style="fill:#888888;stroke:#f9ecc6;fill-opacity:1;stroke-opacity:1;stroke-width:0.297182783678067"
     y="26.6382615986586"
     x="41.2996332735683"
     height="2.47652319731722"
     width="2.47652319731722"
     id="rect-24" />
  <rect
     transform="rotate(0, 41.2996332735683, 29.1147847959758)"
     style="fill:#888888;stroke:#f9ecc6;fill-opacity:1;stroke-opacity:1;stroke-width:0.297182783678067"
     y="29.1147847959758"
     x="41.2996332735683"
     height="2.47652319731722"
     width="2.47652319731722"
     id="rect-25" />
  <rect
     transform="rotate(0, 41.2996332735683, 31.5913079932931)"
     style="fill:#6666AA;stroke:#f9ecc6;fill-opacity:1;stroke-opacity:1;stroke-width:0.297182783678067"
     y="31.5913079932931"
     x="41.2996332735683"
     height="2.47652319731722"
     width="2.47652319731722"
     id="rect-26" />
  <rect
     transform="rotate(0, 41.2996332735683, 34.0678311906103)"
     style="fill:#888888;stroke:#f9ecc6;fill-opacity:1;stroke-opacity:1;stroke-width:0.297182783678067"
     y="34.0678311906103"
     x="41.2996332735683"
     height="2.47652319731722"
     width="2.47652319731722"
     id="rect-27" />
  <rect
     transform="rotate(60, 41.2996332735683, 36.5443543879275)"
     style="fill:#888888;stroke:#f9ecc6;fill-opacity:1;stroke-opacity:1;stroke-width:0.297182783678067"
     y="36.5443543879275"
     x="41.2996332735683"
     height="2.47652319731722"
     width="2.47652319731722"
     id="rect-28" />
  <rect
     transform="rotate(60, 39.1549012716302, 37.7826159865861)"
     style="fill:#888888;stroke:#f9ecc6;fill-opacity:1;stroke-opacity:1;stroke-width:0.297182783678067"
     y="37.7826159865861"
     x="39.1549012716302"
     height="2.47652319731722"
     width="2.47652319731722"
     id="rect-29" />
  <rect
     transform="rotate(60, 37.010169269692, 39.0208775852447)"
     style="fill:#888888;stroke:#f9ecc6;fill-opacity:1;stroke-opacity:1;stroke-width:0.297182783678067"
     y="39.0208775852447"
     x="37.010169269692"
     height="2.47652319731722"
     width="2.47652319731722"
     id="rect-30" />
  <rect
     transform="rotate(60, 34.8654372677538, 40.2591391839033)"
     style="fill:#888888;stroke:#f9ecc6;fill-opacity:1;stroke-opacity:1;stroke-width:0.297182783678067"
     y="40.2591391839033"
     x="34.8654372677538"
     height="2.47652319731722"
     width="2.47652319731722"
     id="rect-31" />
  <rect
     transform="rotate(60, 32.7207052658156, 41.497400782562)"
     style="fill:#888888;stroke:#f9ecc6;fill-opacity:1;stroke-opacity:1;stroke-width:0.297182783678067"
     y="41.497400782562"
     x="32.7207052658156"
     height="2.47652319731722"
     width="2.47652319731722"
     id="rect-32" />
  <rect
     transform="rotate(60, 30.5759732638774, 42.7356623812206)"
     style="fill:#888888;stroke:#f9ecc6;fill-opacity:1;stroke-opacity:1;stroke-width:0.297182783678067"
     y="42.7356623812206"
     x="30.5759732638774"
     height="2.47652319731722"
     width="2.47652319731722"
     id="rect-33" />
  <rect
     transform="rotate(60, 28.4312412619393, 43.9739239798792)"
     style="fill:#888888;stroke:#f9ecc6;fill-opacity:1;stroke-opacity:1;stroke-width:0.297182783678067"
     y="43.9739239798792"
     x="28.4312412619393"
     height="2.47652319731722"
     width="2.47652319731722"
     id="rect-34" />
  <rect
     transform="rotate(60, 26.2865092600011, 45.2121855785378)"
     style="fill:#6666AA;stroke:#f9ecc6;fill-opacity:1;stroke-opacity:1;stroke-width:0.297182783678067"
     y="45.2121855785378"
     x="26.2865092600011"
     height="2.47652319731722"
     width="2.47652319731722"
     id="rect-35" />
  <rect
     transform="rotate(60, 24.1417772580629, 46.4504471771964)"
     style="fill:#888888;stroke:#f9ecc6;fill-opacity:1;stroke-opacity:1;stroke-width:0.297182783678067"
     y="46.4504471771964"
     x="24.1417772580629"
     height="2.47652319731722"
     width="2.47652319731722"
     id="rect-36" />
  <rect
     transform="rotate(30, 19.8523132541866, 46.4504471771964)"
     style="fill:#888888;stroke:#f9ecc6;fill-opacity:1;stroke-opacity:1;stroke-width:0.297182783678067"
     y="46.4504471771964"
     x="19.8523132541866"
     height="2.47652319731722"
     width="2.47652319731722"
     id="rect-37" />
  <rect
     transform="rotate(30, 17.7075812522484, 45.2121855785378)"
     style="fill:#888888;stroke:#f9ecc6;fill-opacity:1;stroke-opacity:1;stroke-width:0.297182783678067"
     y="45.2121855785378"
     x="17.7075812522484"
     height="2.47652319731722"
     width="2.47652319731722"
     id="rect-38" />
  <rect
     transform="rotate(30, 15.5628492503102, 43.9739239798792)"
     style="fill:#888888;stroke:#f9ecc6;fill-opacity:1;stroke-opacity:1;stroke-width:0.297182783678067"
     y="43.9739239798792"
     x="15.5628492503102"
     height="2.47652319731722"
     width="2.47652319731722"
     id="rect-39" />
  <rect
     transform="rotate(30, 13.418117248372, 42.7356623812206)"
     style="fill:#888888;stroke:#f9ecc6;fill-opacity:1;stroke-opacity:1;stroke-width:0.297182783678067"
     y="42.7356623812206"
     x="13.418117248372"
     height="2.47652319731722"
     width="2.47652319731722"
     id="rect-40" />
  <rect
     transform="rotate(30, 11.2733852464339, 41.497400782562)"
     style="fill:#888888;stroke:#f9ecc6;fill-opacity:1;stroke-opacity:1;stroke-width:0.297182783678067"
     y="41.497400782562"
     x="11.2733852464339"
     height="2.47652319731722"
     width="2.47652319731722"
     id="rect-41" />
  <rect
     transform="rotate(30, 9.12865324449567, 40.2591391839033)"
     style="fill:#888888;stroke:#f9ecc6;fill-opacity:1;stroke-opacity:1;stroke-width:0.297182783678067"
     y="40.2591391839033"
     x="9.12865324449567"
     height="2.47652319731722"
     width="2.47652319731722"
     id="rect-42" />
  <rect
     transform="rotate(30, 6.98392124255749, 39.0208775852447)"
     style="fill:#888888;stroke:#f9ecc6;fill-opacity:1;stroke-opacity:1;stroke-width:0.297182783678067"
     y="39.0208775852447"
     x="6.98392124255749"
     height="2.47652319731722"
     width="2.47652319731722"
     id="rect-43" />
  <rect
     transform="rotate(30, 4.83918924061932, 37.7826159865861)"
     style="fill:#6666AA;stroke:#f9ecc6;fill-opacity:1;stroke-opacity:1;stroke-width:0.297182783678067"
     y="37.7826159865861"
     x="4.83918924061932"
     height="2.47652319731722"
     width="2.47652319731722"
     id="rect-44" />
  <rect
     transform="rotate(30, 2.69445723868114, 36.5443543879275)"
     style="fill:#888888;stroke:#f9ecc6;fill-opacity:1;stroke-opacity:1;stroke-width:0.297182783678067"
     y="36.5443543879275"
     x="2.69445723868114"
     height="2.47652319731722"
     width="2.47652319731722"
     id="rect-45" />
  <rect
     transform="rotate(90, 2.69445723868114, 34.0678311906103)"
     style="fill:#888888;stroke:#f9ecc6;fill-opacity:1;stroke-opacity:1;stroke-width:0.297182783678067"
     y="34.0678311906103"
     x="2.69445723868114"
     height="2.47652319731722"
     width="2.47652319731722"
     id="rect-46" />
  <rect
     transform="rotate(90, 2.69445723868114, 31.5913079932931)"
     style="fill:#888888;stroke:#f9ecc6;fill-opacity:1;stroke-opacity:1;stroke-width:0.297182783678067"
     y="31.5913079932931"
     x="2.69445723868114"
     height="2.47652319731722"
     width="2.47652319731722"
     id="rect-47" />
  <rect
     transform="rotate(90, 2.69445723868114, 29.1147847959758)"
     style="fill:#888888;stroke:#f9ecc6;fill-opacity:1;stroke-opacity:1;stroke-width:0.297182783678067"
     y="29.1147847959758"
     x="2.69445723868114"
     height="2.47652319731722"
     width="2.47652319731722"
     id="rect-48" />
  <rect
     transform="rotate(0, 7.64750363331559, 15.4939072107311)"
     style="fill:#66AA66;stroke:#f9ecc6;fill-opacity:1;stroke-opacity:1;stroke-width:0.297182783678067"
     y="15.4939072107311"
     x="7.64750363331559"
     height="2.47652319731722"
     width="2.47652319731722"
     id="rect-50" />
  <rect
     transform="rotate(0, 10.1240268306328, 15.4939072107311)"
     style="fill:#888888;stroke:#f9ecc6;fill-opacity:1;stroke-opacity:1;stroke-width:0.297182783678067"
     y="15.4939072107311"
     x="10.1240268306328"
     height="2.47652319731722"
     width="2.47652319731722"
     id="rect-51" />
  <rect
     transform="rotate(0, 12.60055002795, 15.4939072107311)"
     style="fill:#888888;stroke:#f9ecc6;fill-opacity:1;stroke-opacity:1;stroke-width:0.297182783678067"
     y="15.4939072107311"
     x="12.60055002795"
     height="2.47652319731722"
     width="2.47652319731722"
     id="rect-52" />
  <rect
     transform="rotate(0, 15.0770732252673, 15.4939072107311)"
     style="fill:#888888;stroke:#f9ecc6;fill-opacity:1;stroke-opacity:1;stroke-width:0.297182783678067"
     y="15.4939072107311"
     x="15.0770732252673"
     height="2.47652319731722"
     width="2.47652319731722"
     id="rect-53" />
  <rect
     transform="rotate(0, 17.5535964225845, 15.4939072107311)"
     style="fill:#6666AA;stroke:#f9ecc6;fill-opacity:1;stroke-opacity:1;stroke-width:0.297182783678067"
     y="15.4939072107311"
     x="17.5535964225845"
     height="2.47652319731722"
     width="2.47652319731722"
     id="rect-54" />
  <rect
     transform="rotate(0, 20.0301196199017, 15.4939072107311)"
     style="fill:#888888;stroke:#f9ecc6;fill-opacity:1;stroke-opacity:1;stroke-width:0.297182783678067"
     y="15.4939072107311"
     x="20.0301196199017"
     height="2.47652319731722"
     width="2.47652319731722"
     id="rect-55" />
  <rect
     transform="rotate(0, 22.5066428172189, 15.4939072107311)"
     style="fill:#888888;stroke:#f9ecc6;fill-opacity:1;stroke-opacity:1;stroke-width:0.297182783678067"
     y="15.4939072107311"
     x="22.5066428172189"
     height="2.47652319731722"
     width="2.47652319731722"
     id="rect-56" />
  <rect
     transform="rotate(0, 24.9831660145362, 15.4939072107311)"
     style="fill:#888888;stroke:#f9ecc6;fill-opacity:1;stroke-opacity:1;stroke-width:0.297182783678067"
     y="15.4939072107311"
     x="24.9831660145362"
     height="2.47652319731722"
     width="2.47652319731722"
     id="rect-57" />
  <rect
     transform="rotate(0, 27.4596892118534, 15.4939072107311)"
     style="fill:#888888;stroke:#f9ecc6;fill-opacity:1;stroke-opacity:1;stroke-width:0.297182783678067"
     y="15.4939072107311"
     x="27.4596892118534"
     height="2.47652319731722"
     width="2.47652319731722"
     id="rect-58" />
  <path
     d="M 29.9362124091706,15.4939072107311 L 7.64750363331559,15.4939072107311 L 7.64750363331559,17.9704304080483 L 29.9362124091706,17.9704304080483"
     style="stroke: #228822; fill:none; stroke-width:0.297182783678067;"
     id="path-59" />
  <rect
     transform="rotate(0, 17.5535964225845, 15.4939072107311)"
     style="fill:#6666AA;stroke:#f9ecc6;fill-opacity:1;stroke-opacity:1;stroke-width:0.297182783678067"
     y="15.4939072107311"
     x="17.5535964225845"
     height="2.47652319731722"
     width="2.47652319731722"
     id="rect-60" />
  <rect
     transform="rotate(0, 17.5535964225845, 17.9704304080483)"
     style="fill:#6666AA;stroke:#f9ecc6;fill-opacity:1;stroke-opacity:1;stroke-width:0.297182783678067"
     y="17.9704304080483"
     x="17.5535964225845"
     height="2.47652319731722"
     width="2.47652319731722"
     id="rect-61" />
  <rect
     transform="rotate(0, 17.5535964225845, 20.4469536053656)"
     style="fill:#6666AA;stroke:#f9ecc6;fill-opacity:1;stroke-opacity:1;stroke-width:0.297182783678067"
     y="20.4469536053656"
     x="17.5535964225845"
     height="2.47652319731722"
     width="2.47652319731722"
     id="rect-62" />
  <rect
     transform="rotate(0, 17.5535964225845, 22.9234768026828)"
     style="fill:#6666AA;stroke:#f9ecc6;fill-opacity:1;stroke-opacity:1;stroke-width:0.297182783678067"
     y="22.9234768026828"
     x="17.5535964225845"
     height="2.47652319731722"
     width="2.47652319731722"
     id="rect-63" />
  <rect
     transform="rotate(0, 17.5535964225845, 25.4)"
     style="fill:#6666AA;stroke:#f9ecc6;fill-opacity:1;stroke-opacity:1;stroke-width:0.297182783678067"
     y="25.4"
     x="17.5535964225845"
     height="2.47652319731722"
     width="2.47652319731722"
     id="rect-64" />
  <rect
     transform="rotate(0, 17.5535964225845, 27.8765231973172)"
     style="fill:#6666AA;stroke:#f9ecc6;fill-opacity:1;stroke-opacity:1;stroke-width:0.297182783678067"
     y="27.8765231973172"
     x="17.5535964225845"
     height="2.47652319731722"
     width="2.47652319731722"
     id="rect-65" />
  <rect
     transform="rotate(0, 17.5535964225845, 30.3530463946344)"
     style="fill:#6666AA;stroke:#f9ecc6;fill-opacity:1;stroke-opacity:1;stroke-width:0.297182783678067"
     y="30.3530463946344"
     x="17.5535964225845"
     height="2.47652319731722"
     width="2.47652319731722"
     id="rect-66" />
  <rect
     transform="rotate(0, 17.5535964225845, 32.8295695919517)"
     style="fill:#6666AA;stroke:#f9ecc6;fill-opacity:1;stroke-opacity:1;stroke-width:0.297182783678067"
     y="32.8295695919517"
     x="17.5535964225845"
     height="2.47652319731722"
     width="2.47652319731722"
     id="rect-67" />
  <rect
     transform="rotate(0, 17.5535964225845, 35.3060927892689)"
     style="fill:#6666AA;stroke:#f9ecc6;fill-opacity:1;stroke-opacity:1;stroke-width:0.297182783678067"
     y="35.3060927892689"
     x="17.5535964225845"
     height="2.47652319731722"
     width="2.47652319731722"
     id="rect-68" />
  <path
     d="M 20.0301196199017,37.7826159865861 L 20.0301196199017,15.4939072107311 L 17.5535964225845,15.4939072107311 L 17.5535964225845,37.7826159865861"
     style="stroke: #222288; fill:none; stroke-width:0.297182783678067;"
     id="path-69" />
  <path
     style="stroke:#228822; fill:none; stroke-width:0.396243711570756;     stroke-dasharray:0.792487423141512,0.792487423141512; stroke-dashoffset:0.619130799329306; stroke-linecap:round;"
     d="M3.14769244032092,12.5641488117741 A5.94365567356134,5.94365567356134 0 0,0 8.8857652319742,16.7321688093897"
     id="path-77" />
  <path
     style="stroke:#222288; fill:none; stroke-width:0.396243711570756;     stroke-dasharray:0.792487423141512,0.792487423141512; stroke-dashoffset:0.619130799329306; stroke-linecap:round;"
     d="M8.8857652319742,16.7321688093897 A4.95304639463445,4.95304639463445 0 0,1 18.7918580212431,16.7321688093897"
     id="path-78" />
  <defs
     id="defs80">
    <marker
       markerUnits="strokeWidth"
       orient="auto"
       refY="1.5"
       refX="2.5"
       markerHeight="3"
       markerWidth="5"
       id="arrow-49">
      <path
         id="path74"
         style="fill: #5a5a5a;"
         d="M0,0 l5,1.5 l-5,1.5 l1,-1.5 Z" />
    </marker>
    <marker
       markerUnits="strokeWidth"
       orient="auto"
       refY="1.25"
       refX="1.25"
       markerHeight="2.5"
       markerWidth="2.5"
       id="circle-49">
      <circle
         id="circle77"
         style="fill: #5a5a5a"
         r="1.25"
         cy="1.25"
         cx="1.25" />
    </marker>
  </defs>
  <path
     d="M 3.14769244032092,12.5641488117741 L 5.2924244422591,11.3258872131155 L 7.43715644419728,10.0876256144569 L 9.58188844613546,8.84936401579826 L 11.7266204480736,7.61110241713965 L 13.8713524500118,6.37284081848104 L 16.01608445195,5.13457921982242 L 18.1608164538882,3.89631762116381 L 20.3055484558263,2.6580560225052 A 3.38299360059679,3.38299360059679 0 0,1 23.6885420564231,2.6580560225052 L 25.8332740583613,3.89631762116381 L 27.9780060602995,5.13457921982242 L 30.1227380622377,6.37284081848103 L 32.2674700641758,7.61110241713965 L 34.412202066114,8.84936401579826 L 36.5569340680522,10.0876256144569 L 38.7016660699904,11.3258872131155 L 40.8463980719286,12.5641488117741 A 3.38299360059679,3.38299360059679 0 0,1 42.5378948722269,15.4939072107311 L 42.5378948722269,17.9704304080483 L 42.5378948722269,20.4469536053656 L 42.5378948722269,22.9234768026828 L 42.5378948722269,25.4 L 42.5378948722269,27.8765231973172 L 42.5378948722269,30.3530463946344 L 42.5378948722269,32.8295695919517 L 42.5378948722269,35.3060927892689 A 3.38299360059679,3.38299360059679 0 0,1 40.8463980719286,38.2358511882259 L 38.7016660699904,39.4741127868845 L 36.5569340680522,40.7123743855431 L 34.412202066114,41.9506359842017 L 32.2674700641758,43.1888975828603 L 30.1227380622377,44.427159181519 L 27.9780060602995,45.6654207801776 L 25.8332740583613,46.9036823788362 L 23.6885420564231,48.1419439774948 A 3.38299360059679,3.38299360059679 0 0,1 20.3055484558263,48.1419439774948 L 18.1608164538882,46.9036823788362 L 16.01608445195,45.6654207801776 L 13.8713524500118,44.427159181519 L 11.7266204480736,43.1888975828603 L 9.58188844613546,41.9506359842017 L 7.43715644419728,40.7123743855431 L 5.2924244422591,39.4741127868845 L 3.14769244032092,38.2358511882259 A 3.38299360059679,3.38299360059679 0 0,1 1.45619564002253,35.3060927892689 L 1.45619564002253,32.8295695919517 L 1.45619564002253,30.3530463946344 L 1.45619564002253,27.8765231973172 L 1.45619564002253,25.4"
     style="stroke: #5a5a5a; fill:none; stroke-width:0.495304639463445;     marker-start: url(#circle-49);     marker-end: url(#arrow-49)"
     id="path-49" />
  <defs
     id="defs89">
    <marker
       markerUnits="strokeWidth"
       orient="auto"
       refY="1.5"
       refX="2.5"
       markerHeight="3"
       markerWidth="5"
       id="arrow-70">
      <path
         id="path83"
         style="fill: #228822;"
         d="M0,0 l5,1.5 l-5,1.5 l1,-1.5 Z" />
    </marker>
    <marker
       markerUnits="strokeWidth"
       orient="auto"
       refY="1.25"
       refX="1.25"
       markerHeight="2.5"
       markerWidth="2.5"
       id="circle-70">
      <circle
         id="circle86"
         style="fill: #228822"
         r="1.25"
         cy="1.25"
         cx="1.25" />
    </marker>
  </defs>
  <path
     d="M 8.8857652319742,16.7321688093897 L 11.3622884292914,16.7321688093897 L 13.8388116266086,16.7321688093897 L 16.3153348239259,16.7321688093897 L 18.7918580212431,16.7321688093897 L 21.2683812185603,16.7321688093897 L 23.7449044158775,16.7321688093897 L 26.2214276131948,16.7321688093897 L 28.697950810512,16.7321688093897 L 31.1744740078292,16.7321688093897 L 33.6509972051464,16.7321688093897"
     style="stroke: #228822; fill:none; stroke-width:0.495304639463445;     marker-start: url(#circle-70);     marker-end: url(#arrow-70)"
     id="path-70" />
  <defs
     id="defs98">
    <marker
       markerUnits="strokeWidth"
       orient="auto"
       refY="1.5"
       refX="2.5"
       markerHeight="3"
       markerWidth="5"
       id="arrow-71">
      <path
         id="path92"
         style="fill: #222288;"
         d="M0,0 l5,1.5 l-5,1.5 l1,-1.5 Z" />
    </marker>
    <marker
       markerUnits="strokeWidth"
       orient="auto"
       refY="1.25"
       refX="1.25"
       markerHeight="2.5"
       markerWidth="2.5"
       id="circle-71">
      <circle
         id="circle95"
         style="fill: #222288"
         r="1.25"
         cy="1.25"
         cx="1.25" />
    </marker>
  </defs>
  <path
     d="M 18.7918580212431,16.7321688093897 L 18.7918580212431,19.2086920067069 L 18.7918580212431,21.6852152040242 L 18.7918580212431,24.1617384013414 L 18.7918580212431,26.6382615986586 L 18.7918580212431,29.1147847959758 L 18.7918580212431,31.5913079932931 L 18.7918580212431,34.0678311906103 L 18.7918580212431,36.5443543879275 L 18.7918580212431,39.0208775852447 L 18.7918580212431,41.497400782562"
     style="stroke: #222288; fill:none; stroke-width:0.495304639463445;     marker-start: url(#circle-71);     marker-end: url(#arrow-71)"
     id="path-71" />
  <g
     id="text-72"
     style="font-style:normal;font-variant:normal;font-weight:normal;font-stretch:normal;font-size:9.65129375px;font-family:'DejaVu Sans';letter-spacing:0px;word-spacing:0px;text-anchor:middle;fill:#333333;fill-opacity:1;stroke:none"
     aria-label="r">
    <path
       id="path111"
       style="font-style:normal;font-variant:normal;font-weight:normal;font-stretch:normal;font-size:9.65129375px;font-family:'DejaVu Sans';letter-spacing:0px;word-spacing:0px;text-anchor:middle;fill:#333333;fill-opacity:1;stroke:none"
       d="m 15.326349,23.154232 q -0.146088,-0.08483 -0.320453,-0.122527 -0.169651,-0.04241 -0.377003,-0.04241 -0.735157,0 -1.131011,0.480679 -0.391142,0.475967 -0.391142,1.371351 v 2.780402 h -0.871821 v -5.278051 h 0.871821 v 0.819983 q 0.273328,-0.48068 0.711595,-0.711595 0.438267,-0.235627 1.065035,-0.235627 0.08954,0 0.197927,0.01414 0.108389,0.0094 0.24034,0.03299 z" />
  </g>
  <g
     id="text-73"
     style="font-style:normal;font-variant:normal;font-weight:normal;font-stretch:normal;font-size:9.65129375px;font-family:'DejaVu Sans';letter-spacing:0px;word-spacing:0px;text-anchor:middle;fill:#333333;fill-opacity:1;stroke:none"
     aria-label="R">
    <path
       id="path114"
       style="font-style:normal;font-variant:normal;font-weight:normal;font-stretch:normal;font-size:9.65129375px;font-family:'DejaVu Sans';letter-spacing:0px;word-spacing:0px;text-anchor:middle;fill:#333333;fill-opacity:1;stroke:none"
       d="m 25.165007,24.322943 q 0.306315,0.103676 0.59378,0.442979 0.292178,0.339304 0.584356,0.933084 l 0.966072,1.922719 H 26.286593 L 25.386496,25.81682 Q 25.037768,25.109938 24.70789,24.879023 24.382724,24.648109 23.817219,24.648109 h -1.03676 v 2.973616 h -0.951935 v -7.035831 h 2.148921 q 1.206412,0 1.800193,0.504243 0.59378,0.504242 0.59378,1.522152 0,0.664469 -0.311028,1.102736 -0.306315,0.438266 -0.895383,0.607918 z m -2.384548,-2.954766 v 2.497649 h 1.196986 q 0.688032,0 1.03676,-0.31574 0.353441,-0.320454 0.353441,-0.937797 0,-0.617344 -0.353441,-0.928372 -0.348728,-0.31574 -1.03676,-0.31574 z" />
  </g>
  <g
     id="text-74"
     style="font-style:normal;font-variant:normal;font-weight:normal;font-stretch:normal;font-size:9.65129375px;font-family:'DejaVu Sans';letter-spacing:0px;word-spacing:0px;text-anchor:middle;fill:#333333;fill-opacity:1;stroke:none"
     aria-label="N">
    <path
       id="path117"
       style="font-style:normal;font-variant:normal;font-weight:normal;font-stretch:normal;font-size:9.65129375px;font-family:'DejaVu Sans';letter-spacing:0px;word-spacing:0px;text-anchor:middle;fill:#333333;fill-opacity:1;stroke:none"
       d="m 28.002289,24.428078 h 1.281812 l 3.119705,5.88597 v -5.88597 h 0.923659 v 7.035831 h -1.281812 l -3.119705,-5.88597 v 5.88597 h -0.923659 z" />
  </g>
  <g
     id="text-75"
     style="font-style:normal;font-variant:normal;font-weight:normal;font-stretch:normal;font-size:9.65129375px;font-family:'DejaVu Sans';letter-spacing:0px;word-spacing:0px;text-anchor:middle;fill:#333333;fill-opacity:1;stroke:none"
     aria-label="G">
    <path
       id="path120"
       style="font-style:normal;font-variant:normal;font-weight:normal;font-stretch:normal;font-size:9.65129375px;font-family:'DejaVu Sans';letter-spacing:0px;word-spacing:0px;text-anchor:middle;fill:#333333;fill-opacity:1;stroke:none"
       d="m 39.095949,34.302319 v -1.889731 h -1.55514 v -0.782282 h 2.497649 v 3.020741 q -0.551368,0.391142 -1.215837,0.593781 -0.664469,0.197927 -1.418476,0.197927 -1.649391,0 -2.582475,-0.961359 -0.928372,-0.966072 -0.928372,-2.686151 0,-1.724792 0.928372,-2.686151 0.933084,-0.966072 2.582475,-0.966072 0.688031,0 1.305375,0.169651 0.622056,0.169652 1.145149,0.49953 v 1.013198 q -0.527806,-0.447692 -1.121586,-0.673894 -0.593781,-0.226203 -1.248825,-0.226203 -1.291237,0 -1.941569,0.72102 -0.645619,0.721019 -0.645619,2.148921 0,1.423189 0.645619,2.144208 0.650332,0.72102 1.941569,0.72102 0.504242,0 0.900096,-0.08483 0.395854,-0.08954 0.711595,-0.273328 z" />
  </g>
</svg>
