<?xml version="1.0" encoding="UTF-8" standalone="no"?>
<svg
   xmlns:dc="http://purl.org/dc/elements/1.1/"
   xmlns:cc="http://creativecommons.org/ns#"
   xmlns:rdf="http://www.w3.org/1999/02/22-rdf-syntax-ns#"
   xmlns:svg="http://www.w3.org/2000/svg"
   xmlns="http://www.w3.org/2000/svg"
   id="svg105"
   version="1.1"
   viewBox="0 0 43.9940905122495 50.8"
   height="50.8mm"
   width="43.9940905122495mm"
   preserveAspectRatio="xMidYMid">
  <metadata
     id="metadata109">
    <rdf:RDF>
      <cc:Work
         rdf:about="">
        <dc:format>image/svg+xml</dc:format>
        <dc:type
           rdf:resource="http://purl.org/dc/dcmitype/StillImage" />
      </cc:Work>
    </rdf:RDF>
  </metadata>
  <rect
     fill="none"
     height="100%"
     width="100%"
     id="canvas" />
  <path
     d="M 43.9940905122495,12.7 L 43.9940905122495,38.1 L 21.9970452561247,50.8 L -3.5527136788005e-15,38.1 L 0,12.7 L 21.9970452561247,0 Z"
     style="stroke: none; fill:#F9ECC6; stroke-width:0;"
     id="path-76" />
  <rect
     transform="rotate(-120, 3.43025350834236, 14.6804577864301)"
     style="fill:#888888;stroke:#F9ECC6;fill-opacity:1;stroke-opacity:1;stroke-width:0.28585445902853"
     y="14.6804577864301"
     x="3.43025350834236"
     height="2.38212049190442"
     width="2.38212049190442"
     id="rect-1" />
  <rect
     transform="rotate(-120, 5.49323036920707, 13.4893975404779)"
     style="fill:#888888;stroke:#F9ECC6;fill-opacity:1;stroke-opacity:1;stroke-width:0.28585445902853"
     y="13.4893975404779"
     x="5.49323036920707"
     height="2.38212049190442"
     width="2.38212049190442"
     id="rect-2" />
  <rect
     transform="rotate(-120, 7.55620723007178, 12.2983372945257)"
     style="fill:#888888;stroke:#F9ECC6;fill-opacity:1;stroke-opacity:1;stroke-width:0.28585445902853"
     y="12.2983372945257"
     x="7.55620723007178"
     height="2.38212049190442"
     width="2.38212049190442"
     id="rect-3" />
  <rect
     transform="rotate(-120, 9.61918409093649, 11.1072770485735)"
     style="fill:#66AA66;stroke:#F9ECC6;fill-opacity:1;stroke-opacity:1;stroke-width:0.28585445902853"
     y="11.1072770485735"
     x="9.61918409093649"
     height="2.38212049190442"
     width="2.38212049190442"
     id="rect-4" />
  <rect
     transform="rotate(-120, 11.6821609518012, 9.91621680262129)"
     style="fill:#888888;stroke:#F9ECC6;fill-opacity:1;stroke-opacity:1;stroke-width:0.28585445902853"
     y="9.91621680262129"
     x="11.6821609518012"
     height="2.38212049190442"
     width="2.38212049190442"
     id="rect-5" />
  <rect
     transform="rotate(-120, 13.7451378126659, 8.72515655666908)"
     style="fill:#888888;stroke:#F9ECC6;fill-opacity:1;stroke-opacity:1;stroke-width:0.28585445902853"
     y="8.72515655666908"
     x="13.7451378126659"
     height="2.38212049190442"
     width="2.38212049190442"
     id="rect-6" />
  <rect
     transform="rotate(-120, 15.8081146735306, 7.53409631071687)"
     style="fill:#888888;stroke:#F9ECC6;fill-opacity:1;stroke-opacity:1;stroke-width:0.28585445902853"
     y="7.53409631071687"
     x="15.8081146735306"
     height="2.38212049190442"
     width="2.38212049190442"
     id="rect-7" />
  <rect
     transform="rotate(-120, 17.8710915343953, 6.34303606476466)"
     style="fill:#6666AA;stroke:#F9ECC6;fill-opacity:1;stroke-opacity:1;stroke-width:0.28585445902853"
     y="6.34303606476466"
     x="17.8710915343953"
     height="2.38212049190442"
     width="2.38212049190442"
     id="rect-8" />
  <rect
     transform="rotate(-120, 19.93406839526, 5.15197581881245)"
     style="fill:#888888;stroke:#F9ECC6;fill-opacity:1;stroke-opacity:1;stroke-width:0.28585445902853"
     y="5.15197581881245"
     x="19.93406839526"
     height="2.38212049190442"
     width="2.38212049190442"
     id="rect-9" />
  <rect
     transform="rotate(-150, 24.0600221169894, 5.15197581881245)"
     style="fill:#888888;stroke:#F9ECC6;fill-opacity:1;stroke-opacity:1;stroke-width:0.28585445902853"
     y="5.15197581881245"
     x="24.0600221169894"
     height="2.38212049190442"
     width="2.38212049190442"
     id="rect-10" />
  <rect
     transform="rotate(-150, 26.1229989778542, 6.34303606476466)"
     style="fill:#888888;stroke:#F9ECC6;fill-opacity:1;stroke-opacity:1;stroke-width:0.28585445902853"
     y="6.34303606476466"
     x="26.1229989778542"
     height="2.38212049190442"
     width="2.38212049190442"
     id="rect-11" />
  <rect
     transform="rotate(-150, 28.1859758387189, 7.53409631071687)"
     style="fill:#888888;stroke:#F9ECC6;fill-opacity:1;stroke-opacity:1;stroke-width:0.28585445902853"
     y="7.53409631071687"
     x="28.1859758387189"
     height="2.38212049190442"
     width="2.38212049190442"
     id="rect-12" />
  <rect
     transform="rotate(-150, 30.2489526995836, 8.72515655666908)"
     style="fill:#888888;stroke:#F9ECC6;fill-opacity:1;stroke-opacity:1;stroke-width:0.28585445902853"
     y="8.72515655666908"
     x="30.2489526995836"
     height="2.38212049190442"
     width="2.38212049190442"
     id="rect-13" />
  <rect
     transform="rotate(-150, 32.3119295604483, 9.91621680262129)"
     style="fill:#888888;stroke:#F9ECC6;fill-opacity:1;stroke-opacity:1;stroke-width:0.28585445902853"
     y="9.91621680262129"
     x="32.3119295604483"
     height="2.38212049190442"
     width="2.38212049190442"
     id="rect-14" />
  <rect
     transform="rotate(-150, 34.374906421313, 11.1072770485735)"
     style="fill:#888888;stroke:#F9ECC6;fill-opacity:1;stroke-opacity:1;stroke-width:0.28585445902853"
     y="11.1072770485735"
     x="34.374906421313"
     height="2.38212049190442"
     width="2.38212049190442"
     id="rect-15" />
  <rect
     transform="rotate(-150, 36.4378832821777, 12.2983372945257)"
     style="fill:#888888;stroke:#F9ECC6;fill-opacity:1;stroke-opacity:1;stroke-width:0.28585445902853"
     y="12.2983372945257"
     x="36.4378832821777"
     height="2.38212049190442"
     width="2.38212049190442"
     id="rect-16" />
  <rect
     transform="rotate(-150, 38.5008601430424, 13.4893975404779)"
     style="fill:#6666AA;stroke:#F9ECC6;fill-opacity:1;stroke-opacity:1;stroke-width:0.28585445902853"
     y="13.4893975404779"
     x="38.5008601430424"
     height="2.38212049190442"
     width="2.38212049190442"
     id="rect-17" />
  <rect
     transform="rotate(-150, 40.5638370039071, 14.6804577864301)"
     style="fill:#888888;stroke:#F9ECC6;fill-opacity:1;stroke-opacity:1;stroke-width:0.28585445902853"
     y="14.6804577864301"
     x="40.5638370039071"
     height="2.38212049190442"
     width="2.38212049190442"
     id="rect-18" />
  <rect
     transform="rotate(0, 40.5638370039071, 14.6804577864301)"
     style="fill:#888888;stroke:#F9ECC6;fill-opacity:1;stroke-opacity:1;stroke-width:0.28585445902853"
     y="14.6804577864301"
     x="40.5638370039071"
     height="2.38212049190442"
     width="2.38212049190442"
     id="rect-19" />
  <rect
     transform="rotate(0, 40.5638370039071, 17.0625782783345)"
     style="fill:#888888;stroke:#F9ECC6;fill-opacity:1;stroke-opacity:1;stroke-width:0.28585445902853"
     y="17.0625782783345"
     x="40.5638370039071"
     height="2.38212049190442"
     width="2.38212049190442"
     id="rect-20" />
  <rect
     transform="rotate(0, 40.5638370039071, 19.444698770239)"
     style="fill:#888888;stroke:#F9ECC6;fill-opacity:1;stroke-opacity:1;stroke-width:0.28585445902853"
     y="19.444698770239"
     x="40.5638370039071"
     height="2.38212049190442"
     width="2.38212049190442"
     id="rect-21" />
  <rect
     transform="rotate(0, 40.5638370039071, 21.8268192621434)"
     style="fill:#888888;stroke:#F9ECC6;fill-opacity:1;stroke-opacity:1;stroke-width:0.28585445902853"
     y="21.8268192621434"
     x="40.5638370039071"
     height="2.38212049190442"
     width="2.38212049190442"
     id="rect-22" />
  <rect
     transform="rotate(0, 40.5638370039071, 24.2089397540478)"
     style="fill:#888888;stroke:#F9ECC6;fill-opacity:1;stroke-opacity:1;stroke-width:0.28585445902853"
     y="24.2089397540478"
     x="40.5638370039071"
     height="2.38212049190442"
     width="2.38212049190442"
     id="rect-23" />
  <rect
     transform="rotate(0, 40.5638370039071, 26.5910602459522)"
     style="fill:#888888;stroke:#F9ECC6;fill-opacity:1;stroke-opacity:1;stroke-width:0.28585445902853"
     y="26.5910602459522"
     x="40.5638370039071"
     height="2.38212049190442"
     width="2.38212049190442"
     id="rect-24" />
  <rect
     transform="rotate(0, 40.5638370039071, 28.9731807378566)"
     style="fill:#888888;stroke:#F9ECC6;fill-opacity:1;stroke-opacity:1;stroke-width:0.28585445902853"
     y="28.9731807378566"
     x="40.5638370039071"
     height="2.38212049190442"
     width="2.38212049190442"
     id="rect-25" />
  <rect
     transform="rotate(0, 40.5638370039071, 31.355301229761)"
     style="fill:#6666AA;stroke:#F9ECC6;fill-opacity:1;stroke-opacity:1;stroke-width:0.28585445902853"
     y="31.355301229761"
     x="40.5638370039071"
     height="2.38212049190442"
     width="2.38212049190442"
     id="rect-26" />
  <rect
     transform="rotate(0, 40.5638370039071, 33.7374217216655)"
     style="fill:#888888;stroke:#F9ECC6;fill-opacity:1;stroke-opacity:1;stroke-width:0.28585445902853"
     y="33.7374217216655"
     x="40.5638370039071"
     height="2.38212049190442"
     width="2.38212049190442"
     id="rect-27" />
  <rect
     transform="rotate(60, 40.5638370039071, 36.1195422135699)"
     style="fill:#888888;stroke:#F9ECC6;fill-opacity:1;stroke-opacity:1;stroke-width:0.28585445902853"
     y="36.1195422135699"
     x="40.5638370039071"
     height="2.38212049190442"
     width="2.38212049190442"
     id="rect-28" />
  <rect
     transform="rotate(60, 38.5008601430424, 37.3106024595221)"
     style="fill:#888888;stroke:#F9ECC6;fill-opacity:1;stroke-opacity:1;stroke-width:0.28585445902853"
     y="37.3106024595221"
     x="38.5008601430424"
     height="2.38212049190442"
     width="2.38212049190442"
     id="rect-29" />
  <rect
     transform="rotate(60, 36.4378832821777, 38.5016627054743)"
     style="fill:#888888;stroke:#F9ECC6;fill-opacity:1;stroke-opacity:1;stroke-width:0.28585445902853"
     y="38.5016627054743"
     x="36.4378832821777"
     height="2.38212049190442"
     width="2.38212049190442"
     id="rect-30" />
  <rect
     transform="rotate(60, 34.374906421313, 39.6927229514265)"
     style="fill:#888888;stroke:#F9ECC6;fill-opacity:1;stroke-opacity:1;stroke-width:0.28585445902853"
     y="39.6927229514265"
     x="34.374906421313"
     height="2.38212049190442"
     width="2.38212049190442"
     id="rect-31" />
  <rect
     transform="rotate(60, 32.3119295604483, 40.8837831973787)"
     style="fill:#888888;stroke:#F9ECC6;fill-opacity:1;stroke-opacity:1;stroke-width:0.28585445902853"
     y="40.8837831973787"
     x="32.3119295604483"
     height="2.38212049190442"
     width="2.38212049190442"
     id="rect-32" />
  <rect
     transform="rotate(60, 30.2489526995836, 42.0748434433309)"
     style="fill:#888888;stroke:#F9ECC6;fill-opacity:1;stroke-opacity:1;stroke-width:0.28585445902853"
     y="42.0748434433309"
     x="30.2489526995836"
     height="2.38212049190442"
     width="2.38212049190442"
     id="rect-33" />
  <rect
     transform="rotate(60, 28.1859758387189, 43.2659036892831)"
     style="fill:#888888;stroke:#F9ECC6;fill-opacity:1;stroke-opacity:1;stroke-width:0.28585445902853"
     y="43.2659036892831"
     x="28.1859758387189"
     height="2.38212049190442"
     width="2.38212049190442"
     id="rect-34" />
  <rect
     transform="rotate(60, 26.1229989778542, 44.4569639352353)"
     style="fill:#6666AA;stroke:#F9ECC6;fill-opacity:1;stroke-opacity:1;stroke-width:0.28585445902853"
     y="44.4569639352353"
     x="26.1229989778542"
     height="2.38212049190442"
     width="2.38212049190442"
     id="rect-35" />
  <rect
     transform="rotate(60, 24.0600221169894, 45.6480241811876)"
     style="fill:#888888;stroke:#F9ECC6;fill-opacity:1;stroke-opacity:1;stroke-width:0.28585445902853"
     y="45.6480241811876"
     x="24.0600221169894"
     height="2.38212049190442"
     width="2.38212049190442"
     id="rect-36" />
  <rect
     transform="rotate(30, 19.93406839526, 45.6480241811876)"
     style="fill:#888888;stroke:#F9ECC6;fill-opacity:1;stroke-opacity:1;stroke-width:0.28585445902853"
     y="45.6480241811876"
     x="19.93406839526"
     height="2.38212049190442"
     width="2.38212049190442"
     id="rect-37" />
  <rect
     transform="rotate(30, 17.8710915343953, 44.4569639352353)"
     style="fill:#888888;stroke:#F9ECC6;fill-opacity:1;stroke-opacity:1;stroke-width:0.28585445902853"
     y="44.4569639352353"
     x="17.8710915343953"
     height="2.38212049190442"
     width="2.38212049190442"
     id="rect-38" />
  <rect
     transform="rotate(30, 15.8081146735306, 43.2659036892831)"
     style="fill:#888888;stroke:#F9ECC6;fill-opacity:1;stroke-opacity:1;stroke-width:0.28585445902853"
     y="43.2659036892831"
     x="15.8081146735306"
     height="2.38212049190442"
     width="2.38212049190442"
     id="rect-39" />
  <rect
     transform="rotate(30, 13.7451378126659, 42.0748434433309)"
     style="fill:#888888;stroke:#F9ECC6;fill-opacity:1;stroke-opacity:1;stroke-width:0.28585445902853"
     y="42.0748434433309"
     x="13.7451378126659"
     height="2.38212049190442"
     width="2.38212049190442"
     id="rect-40" />
  <rect
     transform="rotate(30, 11.6821609518012, 40.8837831973787)"
     style="fill:#888888;stroke:#F9ECC6;fill-opacity:1;stroke-opacity:1;stroke-width:0.28585445902853"
     y="40.8837831973787"
     x="11.6821609518012"
     height="2.38212049190442"
     width="2.38212049190442"
     id="rect-41" />
  <rect
     transform="rotate(30, 9.61918409093649, 39.6927229514265)"
     style="fill:#888888;stroke:#F9ECC6;fill-opacity:1;stroke-opacity:1;stroke-width:0.28585445902853"
     y="39.6927229514265"
     x="9.61918409093649"
     height="2.38212049190442"
     width="2.38212049190442"
     id="rect-42" />
  <rect
     transform="rotate(30, 7.55620723007178, 38.5016627054743)"
     style="fill:#888888;stroke:#F9ECC6;fill-opacity:1;stroke-opacity:1;stroke-width:0.28585445902853"
     y="38.5016627054743"
     x="7.55620723007178"
     height="2.38212049190442"
     width="2.38212049190442"
     id="rect-43" />
  <rect
     transform="rotate(30, 5.49323036920707, 37.3106024595221)"
     style="fill:#6666AA;stroke:#F9ECC6;fill-opacity:1;stroke-opacity:1;stroke-width:0.28585445902853"
     y="37.3106024595221"
     x="5.49323036920707"
     height="2.38212049190442"
     width="2.38212049190442"
     id="rect-44" />
  <rect
     transform="rotate(30, 3.43025350834236, 36.1195422135699)"
     style="fill:#888888;stroke:#F9ECC6;fill-opacity:1;stroke-opacity:1;stroke-width:0.28585445902853"
     y="36.1195422135699"
     x="3.43025350834236"
     height="2.38212049190442"
     width="2.38212049190442"
     id="rect-45" />
  <rect
     transform="rotate(90, 3.43025350834236, 33.7374217216655)"
     style="fill:#888888;stroke:#F9ECC6;fill-opacity:1;stroke-opacity:1;stroke-width:0.28585445902853"
     y="33.7374217216655"
     x="3.43025350834236"
     height="2.38212049190442"
     width="2.38212049190442"
     id="rect-46" />
  <rect
     transform="rotate(90, 3.43025350834236, 31.355301229761)"
     style="fill:#888888;stroke:#F9ECC6;fill-opacity:1;stroke-opacity:1;stroke-width:0.28585445902853"
     y="31.355301229761"
     x="3.43025350834236"
     height="2.38212049190442"
     width="2.38212049190442"
     id="rect-47" />
  <rect
     transform="rotate(90, 3.43025350834236, 28.9731807378566)"
     style="fill:#888888;stroke:#F9ECC6;fill-opacity:1;stroke-opacity:1;stroke-width:0.28585445902853"
     y="28.9731807378566"
     x="3.43025350834236"
     height="2.38212049190442"
     width="2.38212049190442"
     id="rect-48" />
  <rect
     transform="rotate(0, 8.1944944921512, 15.8715180323823)"
     style="fill:#66AA66;stroke:#F9ECC6;fill-opacity:1;stroke-opacity:1;stroke-width:0.28585445902853"
     y="15.8715180323823"
     x="8.1944944921512"
     height="2.38212049190442"
     width="2.38212049190442"
     id="rect-50" />
  <rect
     transform="rotate(0, 10.5766149840556, 15.8715180323823)"
     style="fill:#888888;stroke:#F9ECC6;fill-opacity:1;stroke-opacity:1;stroke-width:0.28585445902853"
     y="15.8715180323823"
     x="10.5766149840556"
     height="2.38212049190442"
     width="2.38212049190442"
     id="rect-51" />
  <rect
     transform="rotate(0, 12.95873547596, 15.8715180323823)"
     style="fill:#888888;stroke:#F9ECC6;fill-opacity:1;stroke-opacity:1;stroke-width:0.28585445902853"
     y="15.8715180323823"
     x="12.95873547596"
     height="2.38212049190442"
     width="2.38212049190442"
     id="rect-52" />
  <rect
     transform="rotate(0, 15.3408559678644, 15.8715180323823)"
     style="fill:#888888;stroke:#F9ECC6;fill-opacity:1;stroke-opacity:1;stroke-width:0.28585445902853"
     y="15.8715180323823"
     x="15.3408559678644"
     height="2.38212049190442"
     width="2.38212049190442"
     id="rect-53" />
  <rect
     transform="rotate(0, 17.7229764597689, 15.8715180323823)"
     style="fill:#6666AA;stroke:#F9ECC6;fill-opacity:1;stroke-opacity:1;stroke-width:0.28585445902853"
     y="15.8715180323823"
     x="17.7229764597689"
     height="2.38212049190442"
     width="2.38212049190442"
     id="rect-54" />
  <rect
     transform="rotate(0, 20.1050969516733, 15.8715180323823)"
     style="fill:#888888;stroke:#F9ECC6;fill-opacity:1;stroke-opacity:1;stroke-width:0.28585445902853"
     y="15.8715180323823"
     x="20.1050969516733"
     height="2.38212049190442"
     width="2.38212049190442"
     id="rect-55" />
  <rect
     transform="rotate(0, 22.4872174435777, 15.8715180323823)"
     style="fill:#888888;stroke:#F9ECC6;fill-opacity:1;stroke-opacity:1;stroke-width:0.28585445902853"
     y="15.8715180323823"
     x="22.4872174435777"
     height="2.38212049190442"
     width="2.38212049190442"
     id="rect-56" />
  <rect
     transform="rotate(0, 24.8693379354821, 15.8715180323823)"
     style="fill:#888888;stroke:#F9ECC6;fill-opacity:1;stroke-opacity:1;stroke-width:0.28585445902853"
     y="15.8715180323823"
     x="24.8693379354821"
     height="2.38212049190442"
     width="2.38212049190442"
     id="rect-57" />
  <rect
     transform="rotate(0, 27.2514584273865, 15.8715180323823)"
     style="fill:#888888;stroke:#F9ECC6;fill-opacity:1;stroke-opacity:1;stroke-width:0.28585445902853"
     y="15.8715180323823"
     x="27.2514584273865"
     height="2.38212049190442"
     width="2.38212049190442"
     id="rect-58" />
  <path
     d="M 29.633578919291,15.8715180323823 L 8.1944944921512,15.8715180323823 L 8.1944944921512,18.2536385242867 L 29.633578919291,18.2536385242867"
     style="stroke: #228822; fill:none; stroke-width:0.28585445902853;"
     id="path-59" />
  <rect
     transform="rotate(0, 17.7229764597689, 15.8715180323823)"
     style="fill:#6666AA;stroke:#F9ECC6;fill-opacity:1;stroke-opacity:1;stroke-width:0.28585445902853"
     y="15.8715180323823"
     x="17.7229764597689"
     height="2.38212049190442"
     width="2.38212049190442"
     id="rect-60" />
  <rect
     transform="rotate(0, 17.7229764597689, 18.2536385242867)"
     style="fill:#6666AA;stroke:#F9ECC6;fill-opacity:1;stroke-opacity:1;stroke-width:0.28585445902853"
     y="18.2536385242867"
     x="17.7229764597689"
     height="2.38212049190442"
     width="2.38212049190442"
     id="rect-61" />
  <rect
     transform="rotate(0, 17.7229764597689, 20.6357590161912)"
     style="fill:#6666AA;stroke:#F9ECC6;fill-opacity:1;stroke-opacity:1;stroke-width:0.28585445902853"
     y="20.6357590161912"
     x="17.7229764597689"
     height="2.38212049190442"
     width="2.38212049190442"
     id="rect-62" />
  <rect
     transform="rotate(0, 17.7229764597689, 23.0178795080956)"
     style="fill:#6666AA;stroke:#F9ECC6;fill-opacity:1;stroke-opacity:1;stroke-width:0.28585445902853"
     y="23.0178795080956"
     x="17.7229764597689"
     height="2.38212049190442"
     width="2.38212049190442"
     id="rect-63" />
  <rect
     transform="rotate(0, 17.7229764597689, 25.4)"
     style="fill:#6666AA;stroke:#F9ECC6;fill-opacity:1;stroke-opacity:1;stroke-width:0.28585445902853"
     y="25.4"
     x="17.7229764597689"
     height="2.38212049190442"
     width="2.38212049190442"
     id="rect-64" />
  <rect
     transform="rotate(0, 17.7229764597689, 27.7821204919044)"
     style="fill:#6666AA;stroke:#F9ECC6;fill-opacity:1;stroke-opacity:1;stroke-width:0.28585445902853"
     y="27.7821204919044"
     x="17.7229764597689"
     height="2.38212049190442"
     width="2.38212049190442"
     id="rect-65" />
  <rect
     transform="rotate(0, 17.7229764597689, 30.1642409838088)"
     style="fill:#6666AA;stroke:#F9ECC6;fill-opacity:1;stroke-opacity:1;stroke-width:0.28585445902853"
     y="30.1642409838088"
     x="17.7229764597689"
     height="2.38212049190442"
     width="2.38212049190442"
     id="rect-66" />
  <rect
     transform="rotate(0, 17.7229764597689, 32.5463614757133)"
     style="fill:#6666AA;stroke:#F9ECC6;fill-opacity:1;stroke-opacity:1;stroke-width:0.28585445902853"
     y="32.5463614757133"
     x="17.7229764597689"
     height="2.38212049190442"
     width="2.38212049190442"
     id="rect-67" />
  <rect
     transform="rotate(0, 17.7229764597689, 34.9284819676177)"
     style="fill:#6666AA;stroke:#F9ECC6;fill-opacity:1;stroke-opacity:1;stroke-width:0.28585445902853"
     y="34.9284819676177"
     x="17.7229764597689"
     height="2.38212049190442"
     width="2.38212049190442"
     id="rect-68" />
  <path
     d="M 20.1050969516733,37.3106024595221 L 20.1050969516733,15.8715180323823 L 17.7229764597689,15.8715180323823 L 17.7229764597689,37.3106024595221"
     style="stroke: #222288; fill:none; stroke-width:0.28585445902853;"
     id="path-69" />
  <path
     style="stroke:#228822; fill:none; stroke-width:0.381139278704707;     stroke-dasharray:0.762278557409414,0.762278557409414; stroke-dashoffset:0.595530122976104; stroke-linecap:round;"
     d="M3.86621181579861,13.0534392330217 A5.7170891805706,5.7170891805706 0 0,0 9.38555473810341,17.0625782783345"
     id="path-77" />
  <path
     style="stroke:#222288; fill:none; stroke-width:0.381139278704707;     stroke-dasharray:0.762278557409414,0.762278557409414; stroke-dashoffset:0.595530122976104; stroke-linecap:round;"
     d="M9.38555473810341,17.0625782783345 A4.76424098380884,4.76424098380884 0 0,1 18.9140367057211,17.0625782783345"
     id="path-78" />
  <defs
     id="defs80">
    <marker
       markerUnits="strokeWidth"
       orient="auto"
       refY="1.5"
       refX="2.5"
       markerHeight="3"
       markerWidth="5"
       id="arrow-49">
      <path
         id="path74"
         style="fill: #5A5A5A;"
         d="M0,0 l5,1.5 l-5,1.5 l1,-1.5 Z" />
    </marker>
    <marker
       markerUnits="strokeWidth"
       orient="auto"
       refY="1.25"
       refX="1.25"
       markerHeight="2.5"
       markerWidth="2.5"
       id="circle-49">
      <circle
         id="circle77"
         style="fill: #5A5A5A"
         r="1.25"
         cy="1.25"
         cx="1.25" />
    </marker>
  </defs>
  <path
     d="M 3.86621181579861,13.0534392330217 L 5.92918867666332,11.8623789870695 L 7.99216553752803,10.6713187411172 L 10.0551423983927,9.48025849516504 L 12.1181192592574,8.28919824921283 L 14.1810961201222,7.09813800326062 L 16.2440729809869,5.90707775730841 L 18.3070498418516,4.7160175113562 L 20.3700267027163,3.52495726540399 A 3.25403710681692,3.25403710681692 0 0,1 23.6240638095332,3.52495726540399 L 25.6870406703979,4.7160175113562 L 27.7500175312626,5.90707775730841 L 29.8129943921273,7.09813800326062 L 31.875971252992,8.28919824921283 L 33.9389481138567,9.48025849516504 L 36.0019249747214,10.6713187411172 L 38.0649018355862,11.8623789870695 L 40.1278786964509,13.0534392330217 A 3.25403710681692,3.25403710681692 0 0,1 41.7548972498593,15.8715180323823 L 41.7548972498593,18.2536385242867 L 41.7548972498593,20.6357590161912 L 41.7548972498593,23.0178795080956 L 41.7548972498593,25.4 L 41.7548972498593,27.7821204919044 L 41.7548972498593,30.1642409838088 L 41.7548972498593,32.5463614757133 L 41.7548972498593,34.9284819676177 A 3.25403710681692,3.25403710681692 0 0,1 40.1278786964509,37.7465607669783 L 38.0649018355862,38.9376210129305 L 36.0019249747215,40.1286812588828 L 33.9389481138567,41.319741504835 L 31.875971252992,42.5108017507872 L 29.8129943921273,43.7018619967394 L 27.7500175312626,44.8929222426916 L 25.6870406703979,46.0839824886438 L 23.6240638095332,47.275042734596 A 3.25403710681692,3.25403710681692 0 0,1 20.3700267027163,47.275042734596 L 18.3070498418516,46.0839824886438 L 16.2440729809869,44.8929222426916 L 14.1810961201222,43.7018619967394 L 12.1181192592574,42.5108017507872 L 10.0551423983927,41.319741504835 L 7.99216553752803,40.1286812588828 L 5.92918867666332,38.9376210129305 L 3.86621181579861,37.7465607669783 A 3.25403710681692,3.25403710681692 0 0,1 2.23919326239015,34.9284819676177 L 2.23919326239015,32.5463614757133 L 2.23919326239015,30.1642409838088 L 2.23919326239015,27.7821204919044 L 2.23919326239015,25.4"
     style="stroke: #5A5A5A; fill:none; stroke-width:0.476424098380884;     marker-start: url(#circle-49);     marker-end: url(#arrow-49)"
     id="path-49" />
  <defs
     id="defs89">
    <marker
       markerUnits="strokeWidth"
       orient="auto"
       refY="1.5"
       refX="2.5"
       markerHeight="3"
       markerWidth="5"
       id="arrow-70">
      <path
         id="path83"
         style="fill: #228822;"
         d="M0,0 l5,1.5 l-5,1.5 l1,-1.5 Z" />
    </marker>
    <marker
       markerUnits="strokeWidth"
       orient="auto"
       refY="1.25"
       refX="1.25"
       markerHeight="2.5"
       markerWidth="2.5"
       id="circle-70">
      <circle
         id="circle86"
         style="fill: #228822"
         r="1.25"
         cy="1.25"
         cx="1.25" />
    </marker>
  </defs>
  <path
     d="M 9.38555473810341,17.0625782783345 L 11.7676752300078,17.0625782783345 L 14.1497957219122,17.0625782783345 L 16.5319162138167,17.0625782783345 L 18.9140367057211,17.0625782783345 L 21.2961571976255,17.0625782783345 L 23.6782776895299,17.0625782783345 L 26.0603981814343,17.0625782783345 L 28.4425186733387,17.0625782783345 L 30.8246391652432,17.0625782783345 L 33.2067596571476,17.0625782783345"
     style="stroke: #228822; fill:none; stroke-width:0.476424098380884;     marker-start: url(#circle-70);     marker-end: url(#arrow-70)"
     id="path-70" />
  <defs
     id="defs98">
    <marker
       markerUnits="strokeWidth"
       orient="auto"
       refY="1.5"
       refX="2.5"
       markerHeight="3"
       markerWidth="5"
       id="arrow-71">
      <path
         id="path92"
         style="fill: #222288;"
         d="M0,0 l5,1.5 l-5,1.5 l1,-1.5 Z" />
    </marker>
    <marker
       markerUnits="strokeWidth"
       orient="auto"
       refY="1.25"
       refX="1.25"
       markerHeight="2.5"
       markerWidth="2.5"
       id="circle-71">
      <circle
         id="circle95"
         style="fill: #222288"
         r="1.25"
         cy="1.25"
         cx="1.25" />
    </marker>
  </defs>
  <path
     d="M 18.9140367057211,17.0625782783345 L 18.9140367057211,19.444698770239 L 18.9140367057211,21.8268192621434 L 18.9140367057211,24.2089397540478 L 18.9140367057211,26.5910602459522 L 18.9140367057211,28.9731807378566 L 18.9140367057211,31.355301229761 L 18.9140367057211,33.7374217216655 L 18.9140367057211,36.1195422135699 L 18.9140367057211,38.5016627054743 L 18.9140367057211,40.8837831973787"
     style="stroke: #222288; fill:none; stroke-width:0.476424098380884;     marker-start: url(#circle-71);     marker-end: url(#arrow-71)"
     id="path-71" />
  <g
     id="text-72"
     style="font-style:normal;font-variant:normal;font-weight:normal;font-stretch:normal;font-size:9.28339577px;font-family:'DejaVu Sans';letter-spacing:0px;word-spacing:0px;text-anchor:middle;fill:#333333;fill-opacity:1;stroke:none"
     aria-label="r">
    <path
       id="path111"
       style="font-style:normal;font-variant:normal;font-weight:normal;font-stretch:normal;font-size:9.28339577px;font-family:'DejaVu Sans';letter-spacing:0px;word-spacing:0px;text-anchor:middle;fill:#333333;fill-opacity:1;stroke:none"
       d="m 15.58063,23.239838 q -0.14052,-0.08159 -0.308238,-0.117855 -0.163185,-0.0408 -0.362633,-0.0408 -0.707133,0 -1.087898,0.462357 -0.376231,0.457824 -0.376231,1.319076 v 2.674416 h -0.838588 v -5.076857 h 0.838588 v 0.788726 q 0.262909,-0.462357 0.684469,-0.684469 0.421561,-0.226646 1.024437,-0.226646 0.08613,0 0.190383,0.0136 0.104256,0.0091 0.231178,0.03173 z" />
  </g>
  <g
     id="text-73"
     style="font-style:normal;font-variant:normal;font-weight:normal;font-stretch:normal;font-size:9.28339577px;font-family:'DejaVu Sans';letter-spacing:0px;word-spacing:0px;text-anchor:middle;fill:#333333;fill-opacity:1;stroke:none"
     aria-label="R">
    <path
       id="path114"
       style="font-style:normal;font-variant:normal;font-weight:normal;font-stretch:normal;font-size:9.28339577px;font-family:'DejaVu Sans';letter-spacing:0px;word-spacing:0px;text-anchor:middle;fill:#333333;fill-opacity:1;stroke:none"
       d="m 25.044247,24.363999 q 0.294639,0.09972 0.571147,0.426094 0.28104,0.326369 0.56208,0.897515 l 0.929246,1.849427 H 26.123079 L 25.257294,25.800931 Q 24.921859,25.120995 24.604555,24.898882 24.291784,24.67677 23.747835,24.67677 h -0.997239 v 2.860265 h -0.915648 v -6.767632 h 2.067006 q 1.160425,0 1.731571,0.485021 0.571147,0.485022 0.571147,1.46413 0,0.63914 -0.299172,1.0607 -0.294639,0.421561 -0.861253,0.584745 z m -2.293651,-2.842133 v 2.402441 h 1.151358 q 0.661805,0 0.99724,-0.303705 0.339968,-0.308237 0.339968,-0.902048 0,-0.593811 -0.339968,-0.892983 -0.335435,-0.303705 -0.99724,-0.303705 z" />
  </g>
  <g
     id="text-74"
     style="font-style:normal;font-variant:normal;font-weight:normal;font-stretch:normal;font-size:9.28339577px;font-family:'DejaVu Sans';letter-spacing:0px;word-spacing:0px;text-anchor:middle;fill:#333333;fill-opacity:1;stroke:none"
     aria-label="N">
    <path
       id="path117"
       style="font-style:normal;font-variant:normal;font-weight:normal;font-stretch:normal;font-size:9.28339577px;font-family:'DejaVu Sans';letter-spacing:0px;word-spacing:0px;text-anchor:middle;fill:#333333;fill-opacity:1;stroke:none"
       d="m 27.773374,24.465126 h 1.232951 l 3.000785,5.661602 v -5.661602 h 0.88845 v 6.767632 h -1.232951 l -3.000785,-5.661603 v 5.661603 h -0.88845 z" />
  </g>
  <g
     id="text-75"
     style="font-style:normal;font-variant:normal;font-weight:normal;font-stretch:normal;font-size:9.28339577px;font-family:'DejaVu Sans';letter-spacing:0px;word-spacing:0px;text-anchor:middle;fill:#333333;fill-opacity:1;stroke:none"
     aria-label="G">
    <path
       id="path120"
       style="font-style:normal;font-variant:normal;font-weight:normal;font-stretch:normal;font-size:9.28339577px;font-family:'DejaVu Sans';letter-spacing:0px;word-spacing:0px;text-anchor:middle;fill:#333333;fill-opacity:1;stroke:none"
       d="m 38.444156,33.962973 v -1.817697 h -1.49586 v -0.752462 h 2.402441 v 2.905594 q -0.53035,0.376231 -1.16949,0.571146 -0.63914,0.190382 -1.364405,0.190382 -1.586518,0 -2.484034,-0.924713 -0.892983,-0.929246 -0.892983,-2.583757 0,-1.659045 0.892983,-2.583758 0.897516,-0.929246 2.484034,-0.929246 0.661804,0 1.255615,0.163184 0.598344,0.163185 1.101497,0.480489 v 0.974575 q -0.507686,-0.430626 -1.078832,-0.648206 -0.571147,-0.217579 -1.201221,-0.217579 -1.242017,0 -1.867558,0.693534 -0.621008,0.693535 -0.621008,2.067007 0,1.368938 0.621008,2.062473 0.625541,0.693535 1.867558,0.693535 0.485021,0 0.865785,-0.08159 0.380765,-0.08613 0.68447,-0.262908 z" />
  </g>
</svg>
